<svg xmlns="http://www.w3.org/2000/svg" viewBox="0 0 512 512" width="512" height="512">
  <defs>
    <linearGradient id="bg" x1="0" y1="0" x2="1" y2="1">
      <stop offset="0" stop-color="#4f46e5"/>
      <stop offset="0.55" stop-color="#2563eb"/>
      <stop offset="1" stop-color="#0ea5e9"/>
    </linearGradient>
    <linearGradient id="knight" x1="0.2" y1="0" x2="0.8" y2="1">
      <stop offset="0" stop-color="#ffffff"/>
      <stop offset="1" stop-color="#dbeafe"/>
    </linearGradient>
  </defs>
  <rect x="0" y="0" width="512" height="512" rx="96" fill="url(#bg)"/>
  <g transform="translate(126,98) scale(0.60)" fill="url(#knight)">
    <path d="M19 272.5l16.6-235.5C36.5 21.8 48.8 8 64.3 8h2.7C84.1 8 99 21.8 99.6 39.1l8.4 132.9 24.6-49.2c11.3-22.5 29.4-40.9 51.8-52.5L246 35.8c5.8-3 12.6 1.5 12 8.1l-3.9 43.7c-1.2 13.6 8 25.9 21.4 28.5l16.3 3.3c12.4 2.5 24.4 6.9 35.5 13l36.1 19.9c34.3 18.9 55.6 55 55.6 94.1V472c0 22.1-17.9 40-40 40H184c-22.1 0-40-17.9-40-40v-21.5c0-12.7 6-24.7 16.2-32.3l71.8-53.8c2.5-1.9 4-4.9 4-8 0-5.5-4.5-10-10-10h-32c-49.7 0-90-40.3-90-90 0-11.5 2.2-22.6 6.2-32.7L74.6 311c-5.5 11-19.9 13.3-28.6 4.7L19 272.5z"/>
  </g>
</svg>
